<svg id="Icon" xmlns="http://www.w3.org/2000/svg" viewBox="0 0 1120.24 1000"><defs><style>.cls-1{fill:#e6e6e6;}</style></defs><rect class="cls-1" width="1117.02" height="1000"/><path d="M433.52,436.2V287.61a881.17,881.17,0,0,1-52.44,83.91C363.6,396,347.87,417,332.14,436.2Zm55.94-227.26V436.2h42l21,47.19H489.46v76.92H433.52V483.39H274.45V436.2c33.21-38.46,64.68-76.92,92.65-118.87,28-40.21,48.94-76.92,64.68-110.13h57.68Z"/><polygon points="760.41 208.94 643.29 359.28 632.8 375.01 632.8 375.01 632.8 208.94 573.37 208.94 573.37 562.06 632.8 562.06 632.8 389 632.8 389 643.29 404.73 763.91 562.06 842.57 562.06 690.49 376.76 832.09 208.94 760.41 208.94"/><path d="M139.85,715.89c0,50.69-24.48,76.91-71.67,76.91-22.73,0-40.21-7-50.7-19.23C5.24,761.34,0,742.11,0,717.64V611H29.72V717.64c0,33.21,14,48.94,42,48.94,14,0,24.47-3.49,29.72-12.23,7-8.74,10.49-19.23,10.49-35V611h28Z"/><polygon points="174.81 611 174.81 791.05 274.45 791.05 274.45 764.83 204.53 764.83 204.53 611 174.81 611"/><polygon points="256.97 611 256.97 637.22 307.66 637.22 307.66 791.05 339.13 791.05 339.13 637.22 389.82 637.22 389.82 611 256.97 611"/><path d="M494.71,661.7c0-8.74-3.5-14-8.74-19.23s-14-7-24.48-7H437v57.68h22.72c8.75,0,17.49-3.49,22.73-8.74,10.49-5.24,12.24-12.23,12.24-22.72M500,791.06l-21-52.45c-5.24-14-14-21-24.47-21h-14v73.42H410.8V611h57.69c19.22,0,33.21,3.5,43.7,12.24s15.73,21,15.73,35q0,18.36-10.49,31.47c-7,8.74-17.48,14-29.72,17.48h0c3.5,1.75,7,3.49,10.49,8.74a38,38,0,0,1,8.74,14l28,57.69H500Z"/><path d="M632.8,637.22h0c-1.74,5.25-1.74,8.74-3.49,12.24l-24.47,69.92H659l-24.48-69.92a55.89,55.89,0,0,0-1.75-12.24m52.45,153.84-15.74-45.45H597.84l-15.73,45.45H548.9L617.07,611h33.22l68.17,180.06Z"/><polygon points="900.26 611 900.26 686.17 816.35 686.17 816.35 611 786.64 611 786.64 791.05 816.35 791.05 816.35 712.39 900.26 712.39 900.26 791.05 929.98 791.05 929.98 611 900.26 611"/><path d="M1085.56,698.41c0-19.23-5.25-35-17.48-45.45s-28-15.74-48.95-15.74H994.66V764.83h24.47c21,0,36.71-5.24,48.95-17.48,10.48-12.23,17.48-28,17.48-48.94m31.46,0c0,17.48-3.49,35-12.23,48.94s-19.23,24.48-35,31.47-31.46,10.49-50.69,10.49H964.94V611h55.94c31.46,0,55.94,7,71.67,22.73,15.73,14,24.47,36.71,24.47,64.68"/></svg>