<svg id="Icon" xmlns="http://www.w3.org/2000/svg" viewBox="0 0 1072.36 1000"><defs><style>.cls-1{fill:#e6e6e6;}</style></defs><rect class="cls-1" x="-2.98" width="1075.34" height="1000"/><path d="M150.38,905.71c0,18.22-4,34.86-11.89,49.12a77,77,0,0,1-34.86,32.49c-15.06,7.93-32.49,11.89-51.51,11.89H-2.55V817.75H53.71c32.48,0,57.05,7.92,72.9,22.19C141.66,854.2,150.38,876.39,150.38,905.71Zm-32.49,0c0-20.61-5.55-35.66-17.43-46.76s-27.74-16.64-49.13-16.64H26.77v130H51.33c21.39,0,38-5.55,49.13-17.44C112.34,943,117.89,926.31,117.89,905.71Z"/><path d="M173.36,998.42V817h98.25v26.15H203.47v51.5h63.39v26.15H203.47v52.3h72.11v26.15Z"/><path d="M302.52,998.42V817h30.11V972.27h71.31v26.15Z"/><path d="M429.3,998.42V817h30.11V998.42Z"/><path d="M583,998.42H548.16L484,817h33.28l45.16,137.87c1.59,4.76,3.17,9.51,3.17,16.64h.79a125.27,125.27,0,0,1,3.17-16.64l46-137.08h31.7Z"/><path d="M671.77,998.42V817H770v26.15H701.88v51.5h63.4v26.15h-63.4v52.3H774v26.15Z"/><path d="M891.27,998.42l-22.19-52.3c-5.55-14.27-14.26-21.4-24.57-21.4H830.25v73.7H800.14V817h58.64c19,0,34.07,4,44.37,12.68S919,850.24,919,866.09c0,12.67-3.17,23-10.3,32.48-7.13,8.72-16.64,15.06-29.32,18.23v.79a22.71,22.71,0,0,1,11.09,8.72c4,4.75,7.14,9.51,8.72,14.26L926.92,1000Zm-4-130c0-8.71-3.17-15.05-8.71-19.81s-13.47-7.13-23.77-7.13H831v57.05h23.78a35.12,35.12,0,0,0,23.77-8.71C884.13,885.1,887.3,878,887.3,868.46Z"/><path d="M1012.5,932.65v65.77H982.39v-65L923.75,817h34.08L994.28,893a12.63,12.63,0,0,1,2.37,6.34,8.51,8.51,0,0,0,1.59,4.75h0a70.26,70.26,0,0,1,4-11.89l38-76.07h31.69Z"/><path d="M231.2,729.79c0,15.85-5.54,28.53-17.43,37.25-11.09,8.71-26.94,13.47-47.54,13.47a91.27,91.27,0,0,1-24.57-3.17q-13.07-3.57-19-7.13V736.93A69.64,69.64,0,0,0,144,749.6c8.72,3.17,17.43,5.55,25.36,5.55,9.5,0,16.64-1.58,21.39-5.55A21.06,21.06,0,0,0,198.71,733c0-6.34-2.37-11.88-7.13-17.43s-14.26-11.88-28.52-19c-13.47-7.13-23.77-15-30.11-23a47.06,47.06,0,0,1-10.31-29.31,44.2,44.2,0,0,1,7.93-26.15c4.75-7.93,12.68-13.47,21.39-18.23a81.9,81.9,0,0,1,32.49-6.34,107.19,107.19,0,0,1,23,2.38c7.92,1.58,12.68,3.17,15.85,4.75v31.7c-4.76-4-11.09-7.13-17.43-9.51a66.74,66.74,0,0,0-21.4-3.17c-8.71,0-15.85,2.38-21.39,6.34s-7.93,9.51-7.93,16.64a26.53,26.53,0,0,0,2.38,11.89c1.58,3.17,4.75,6.34,8.72,9.51s10.3,7.13,20.6,12.67c15.85,8.72,27.73,16.64,34.86,25.36A45,45,0,0,1,231.2,729.79Z"/><path d="M425.34,777.34V661.65c0-8.72.79-21.4,1.58-38.83h-.79c-1.58,9.51-3.17,15.85-5.55,20.6L365.91,778.13H346.1L290.63,645c-1.58-4.76-3.17-11.89-5.54-21.4h-.8c0,2.38.8,7.93.8,18.23,0,9.51.79,18.22.79,24.56V778.13H258.14V596.67h42.79l46,114.9c4.76,11.09,7.13,19,7.93,25.36h.79l9.51-25.36,47.54-114.11h41.21V778.92Z"/><path d="M612.34,777.34l-16.64-46H522.8l-15.84,46H473.67l68.94-181.46h33.28l68.94,181.46ZM560.05,623.61h0c-1.59,4.76-2.38,9.51-3.17,12.68L532.31,706h55.47l-24.56-69.73C561.63,633.91,560.84,630,560.05,623.61Z"/><path d="M755.77,777.34,733.58,725C728,710.78,719.32,703.65,709,703.65H694.75v73.69H664.64V595.88h58.64c19,0,34.07,4,44.37,12.68S783.5,629.16,783.5,645c0,12.68-3.17,23-10.3,32.49-7.13,8.71-16.64,15-29.32,18.22v.79A22.77,22.77,0,0,1,755,705.23c4,4.75,7.14,9.51,8.72,14.26l27.73,59.43-35.65-1.58ZM751,648.18c0-8.72-3.17-15.06-8.71-19.81s-13.47-7.13-23.78-7.13H694.75v57h23.77a35.08,35.08,0,0,0,23.78-8.72C747.84,664.82,751,656.89,751,648.18Z"/><path d="M879.38,622V777.34H849.27V622H797V595.88H931.68V622Z"/><path d="M773.2,67.35,713,0H355.61L295.39,67.35l.79,351h478.6Zm-404.91-38H699.51l26.94,30.11H340.55Zm-42.79,359-.79-298.73H743.88l.79,298.73Z"/><polygon points="621.85 217.12 600.46 194.93 549.75 245.64 549.75 119.65 518.84 119.65 518.84 245.64 468.13 194.93 446.73 216.32 534.69 304.28 621.85 217.12"/><rect x="443.56" y="328.05" width="183.04" height="30.11"/></svg>